<svg width="39" height="49" viewBox="0 0 39 49" fill="none" xmlns="http://www.w3.org/2000/svg">
<rect width="39" height="49" rx="10" fill="#D8DDF1"/>
<path d="M28.7707 26.9089L28.7542 26.9065L28.7376 26.9053L23.4376 26.5053L22.35 26.4232L22.9977 27.3008L26.0899 31.4902C26.3504 31.89 26.2582 32.3553 25.9334 32.5805L23.5481 33.972L23.5351 33.9795L23.5226 33.9878C23.1688 34.2237 22.7299 34.1044 22.5596 33.7069L22.5514 33.6878L22.5417 33.6695L19.9417 28.7695L19.5 27.9371L19.0583 28.7695L16.4583 33.6695L16.4582 33.6694L16.4528 33.6803C16.2985 33.9888 15.8319 34.1497 15.4401 33.9647L13.1697 32.5827C12.7847 32.3207 12.705 31.8589 12.9841 31.524L12.9911 31.5156L12.9977 31.5069L16.1977 27.3069L16.8698 26.4247L15.7637 26.5052L10.2836 26.9037C9.81503 26.8964 9.5 26.5726 9.5 26.2039V23.5039C9.5 23.0626 9.87389 22.7481 10.2293 22.7988L10.2461 22.8012L10.2631 22.8025L15.6631 23.2025L16.7545 23.2833L16.1011 22.4054L12.9096 18.1168C12.6488 17.7158 12.7427 17.2491 13.0699 17.0249L15.36 15.631L15.3688 15.6256L15.3773 15.6199C15.7312 15.384 16.1701 15.5033 16.3404 15.9008L16.3486 15.9199L16.3583 15.9382L18.9583 20.8382L19.4 21.6706L19.8417 20.8382L22.4417 15.9382L22.4418 15.9383L22.4472 15.9275C22.6015 15.6189 23.0681 15.458 23.4599 15.6431L25.7303 17.0251C26.1153 17.2871 26.195 17.7488 25.9159 18.0838L25.9065 18.0951L25.8977 18.1069L22.7977 22.3069L22.15 23.1845L23.2376 23.1025L28.5176 22.704C29.1778 22.7112 29.5 23.1292 29.5 23.5039V26.2039C29.5 26.6451 29.1261 26.9597 28.7707 26.9089Z" fill="#09125D" stroke="#D3D8FD"/>
</svg>
