<svg width="20" height="20" viewBox="0 0 20 20" fill="none" xmlns="http://www.w3.org/2000/svg">
<path d="M0 9.99933C0 9.13433 0.11 8.29633 0.316 7.49533C0.868465 7.52437 1.4182 7.40008 1.90444 7.1362C2.39068 6.87231 2.79448 6.47912 3.07121 6.00007C3.34793 5.52103 3.48681 4.97479 3.47247 4.42175C3.45814 3.86871 3.29117 3.3304 2.99 2.86633C4.19894 1.6769 5.69079 0.814824 7.325 0.361328C7.57599 0.854801 7.95864 1.2692 8.43058 1.55864C8.90253 1.84808 9.44537 2.00128 9.999 2.00128C10.5526 2.00128 11.0955 1.84808 11.5674 1.55864C12.0394 1.2692 12.422 0.854801 12.673 0.361328C14.3072 0.814824 15.7991 1.6769 17.008 2.86633C16.7065 3.33048 16.5393 3.869 16.5248 4.42229C16.5104 4.97559 16.6493 5.52209 16.9262 6.00134C17.2031 6.48059 17.6071 6.87389 18.0937 7.13774C18.5802 7.40159 19.1303 7.5257 19.683 7.49633C19.889 8.29633 19.999 9.13433 19.999 9.99933C19.999 10.8643 19.889 11.7023 19.683 12.5033C19.1305 12.4741 18.5806 12.5982 18.0942 12.862C17.6078 13.1258 17.2039 13.519 16.927 13.9981C16.6502 14.4772 16.5112 15.0235 16.5255 15.5766C16.5398 16.1298 16.7068 16.6682 17.008 17.1323C15.7991 18.3218 14.3072 19.1838 12.673 19.6373C12.422 19.1439 12.0394 18.7295 11.5674 18.44C11.0955 18.1506 10.5526 17.9974 9.999 17.9974C9.44537 17.9974 8.90253 18.1506 8.43058 18.44C7.95864 18.7295 7.57599 19.1439 7.325 19.6373C5.69079 19.1838 4.19894 18.3218 2.99 17.1323C3.29151 16.6682 3.45873 16.1297 3.47317 15.5764C3.48761 15.0231 3.3487 14.4766 3.07181 13.9973C2.79492 13.5181 2.39085 13.1248 1.90431 12.8609C1.41776 12.5971 0.867704 12.473 0.315 12.5023C0.11 11.7033 0 10.8653 0 9.99933ZM4.804 12.9993C5.434 14.0903 5.614 15.3453 5.368 16.5233C5.776 16.8133 6.21 17.0643 6.665 17.2733C7.58167 16.4522 8.76931 15.9985 10 15.9993C11.26 15.9993 12.438 16.4703 13.335 17.2733C13.79 17.0643 14.224 16.8133 14.632 16.5233C14.3794 15.3193 14.5803 14.0644 15.196 12.9993C15.8106 11.9337 16.797 11.1325 17.966 10.7493C18.0122 10.2504 18.0122 9.74826 17.966 9.24933C16.7966 8.86639 15.8099 8.06515 15.195 6.99933C14.5793 5.93426 14.3784 4.67936 14.631 3.47533C14.2231 3.18525 13.7889 2.93415 13.334 2.72533C12.4176 3.54626 11.2303 3.99994 10 3.99933C8.76931 4.00018 7.58167 3.54649 6.665 2.72533C6.21013 2.93415 5.77589 3.18526 5.368 3.47533C5.62056 4.67936 5.41972 5.93426 4.804 6.99933C4.18937 8.06496 3.20298 8.86617 2.034 9.24933C1.98775 9.74826 1.98775 10.2504 2.034 10.7493C3.20335 11.1323 4.19013 11.9335 4.805 12.9993H4.804ZM10 12.9993C9.20435 12.9993 8.44129 12.6833 7.87868 12.1206C7.31607 11.558 7 10.795 7 9.99933C7 9.20368 7.31607 8.44062 7.87868 7.87801C8.44129 7.3154 9.20435 6.99933 10 6.99933C10.7956 6.99933 11.5587 7.3154 12.1213 7.87801C12.6839 8.44062 13 9.20368 13 9.99933C13 10.795 12.6839 11.558 12.1213 12.1206C11.5587 12.6833 10.7956 12.9993 10 12.9993ZM10 10.9993C10.2652 10.9993 10.5196 10.894 10.7071 10.7064C10.8946 10.5189 11 10.2645 11 9.99933C11 9.73411 10.8946 9.47976 10.7071 9.29222C10.5196 9.10468 10.2652 8.99933 10 8.99933C9.73478 8.99933 9.48043 9.10468 9.29289 9.29222C9.10536 9.47976 9 9.73411 9 9.99933C9 10.2645 9.10536 10.5189 9.29289 10.7064C9.48043 10.894 9.73478 10.9993 10 10.9993Z" fill="black"/>
</svg>
