<svg width="153" height="118" viewBox="0 0 153 118" fill="none" xmlns="http://www.w3.org/2000/svg">
<rect width="100.934" height="107.683" rx="25.3895" transform="matrix(-0.863309 -0.504676 -0.504676 0.863309 163.287 65.9687)" fill="#F8EBE5"/>
<path fill-rule="evenodd" clip-rule="evenodd" d="M152.766 89.8472C161.104 75.5853 159.257 58.9931 148.641 52.7873L94.8207 21.325C84.205 15.1192 68.8406 21.65 60.5033 35.9118L32.3243 84.1154C23.9871 98.3773 25.8342 114.97 36.4499 121.175L90.27 152.638C100.886 158.843 116.25 152.313 124.587 138.051L152.766 89.8472ZM144.615 59.6735C152.4 64.2244 153.755 76.3921 147.641 86.8508L119.462 135.054C113.348 145.513 102.08 150.302 94.2956 145.751L40.4755 114.289C32.6906 109.738 31.3361 97.5706 37.4501 87.1119L65.6291 38.9082C71.743 28.4495 83.0103 23.6603 90.7951 28.2112L144.615 59.6735Z" fill="#F8EBE5"/>
<rect width="100.934" height="107.683" rx="25.3895" transform="matrix(-0.863309 -0.504676 -0.504676 0.863309 175.799 68.5245)" fill="#F5E3DB"/>
<path fill-rule="evenodd" clip-rule="evenodd" d="M165.279 92.403C173.616 78.1411 171.769 61.5488 161.153 55.3431L107.333 23.8808C96.7176 17.675 81.3532 24.2057 73.016 38.4676L44.837 86.6712C36.4997 100.933 38.3468 117.525 48.9625 123.731L102.783 155.193C113.398 161.399 128.763 154.868 137.1 140.607L165.279 92.403ZM157.128 62.2293C164.913 66.7802 166.267 78.9479 160.153 89.4065L131.974 137.61C125.86 148.069 114.593 152.858 106.808 148.307L52.9881 116.845C45.2032 112.294 43.8487 100.126 49.9627 89.6676L78.1417 41.464C84.2557 31.0053 95.5229 26.2161 103.308 30.767L157.128 62.2293Z" fill="#F5E3DB"/>
<path fill-rule="evenodd" clip-rule="evenodd" d="M151.18 50.3017C168.421 53.8232 179.543 70.6543 176.021 87.8951L164.119 146.167C160.597 163.408 143.766 174.529 126.525 171.008L39.1174 153.154C21.8767 149.633 10.7551 132.801 14.2767 115.561L26.1791 57.2888C29.7006 40.0481 46.5318 28.9265 63.7725 32.448L151.18 50.3017Z" fill="#F1D7CB"/>
<path d="M151.18 50.3017L152.03 46.1394L151.18 50.3017ZM126.525 171.008L125.675 175.17L126.525 171.008ZM39.1174 153.154L39.9676 148.992L39.1174 153.154ZM63.7725 32.448L62.9223 36.6103L63.7725 32.448ZM171.859 87.0449C174.911 72.1029 165.272 57.516 150.33 54.464L152.03 46.1394C171.57 50.1305 184.174 69.2057 180.183 88.7452L171.859 87.0449ZM159.956 145.317L171.859 87.0449L180.183 88.7452L168.281 147.017L159.956 145.317ZM127.375 166.845C142.317 169.897 156.904 160.259 159.956 145.317L168.281 147.017C164.29 166.557 145.215 179.161 125.675 175.17L127.375 166.845ZM39.9676 148.992L127.375 166.845L125.675 175.17L38.2673 157.316L39.9676 148.992ZM18.4389 116.411C15.3869 131.353 25.0257 145.94 39.9676 148.992L38.2673 157.316C18.7278 153.325 6.1233 134.25 10.1144 114.711L18.4389 116.411ZM30.3414 58.139L18.4389 116.411L10.1144 114.711L22.0168 56.4386L30.3414 58.139ZM62.9223 36.6103C47.9803 33.5583 33.3934 43.197 30.3414 58.139L22.0168 56.4386C26.0079 36.8992 45.0832 24.2947 64.6227 28.2857L62.9223 36.6103ZM150.33 54.464L62.9223 36.6103L64.6227 28.2857L152.03 46.1394L150.33 54.464Z" fill="#F8EBE5"/>
<mask id="path-7-inside-1" fill="white">
<path fill-rule="evenodd" clip-rule="evenodd" d="M148.746 52.8614C165.505 56.2846 176.375 72.3563 173.024 88.7587L161.701 144.197C158.35 160.6 142.049 171.121 125.29 167.698L40.3246 150.344C23.5657 146.921 12.6959 130.849 16.0462 114.446L27.3699 59.0078C30.7202 42.6054 47.0219 32.0836 63.7808 35.5067L148.746 52.8614Z"/>
</mask>
<path d="M148.746 52.8614L149.193 50.6744L148.746 52.8614ZM63.7808 35.5067L63.3341 37.6937L63.7808 35.5067ZM175.211 89.2055L175.122 89.6454L170.747 88.752L170.837 88.312L175.211 89.2055ZM174.762 91.4054L174.582 92.2854L170.208 91.392L170.388 90.512L174.762 91.4054ZM174.223 94.0453L174.043 94.9253L169.669 94.0319L169.849 93.1519L174.223 94.0453ZM173.684 96.6853L173.504 97.5652L169.13 96.6718L169.31 95.7918L173.684 96.6853ZM173.144 99.3252L172.965 100.205L168.591 99.3117L168.77 98.4318L173.144 99.3252ZM172.605 101.965L172.425 102.845L168.051 101.952L168.231 101.072L172.605 101.965ZM172.066 104.605L171.886 105.485L167.512 104.592L167.692 103.712L172.066 104.605ZM171.527 107.245L171.347 108.125L166.973 107.232L167.153 106.352L171.527 107.245ZM170.987 109.885L170.808 110.765L166.434 109.871L166.613 108.991L170.987 109.885ZM170.448 112.525L170.268 113.405L165.894 112.511L166.074 111.631L170.448 112.525ZM169.909 115.165L169.729 116.045L165.355 115.151L165.535 114.271L169.909 115.165ZM169.37 117.805L169.19 118.685L164.816 117.791L164.996 116.911L169.37 117.805ZM168.831 120.445L168.651 121.325L164.277 120.431L164.457 119.551L168.831 120.445ZM168.291 123.085L168.112 123.965L163.738 123.071L163.917 122.191L168.291 123.085ZM167.752 125.724L167.572 126.604L163.198 125.711L163.378 124.831L167.752 125.724ZM167.213 128.364L167.033 129.244L162.659 128.351L162.839 127.471L167.213 128.364ZM166.674 131.004L166.494 131.884L162.12 130.991L162.3 130.111L166.674 131.004ZM166.134 133.644L165.955 134.524L161.581 133.631L161.76 132.751L166.134 133.644ZM165.595 136.284L165.415 137.164L161.041 136.271L161.221 135.391L165.595 136.284ZM165.056 138.924L164.876 139.804L160.502 138.911L160.682 138.031L165.056 138.924ZM164.517 141.564L164.337 142.444L159.963 141.551L160.143 140.671L164.517 141.564ZM163.978 144.204L163.888 144.644L159.514 143.751L159.604 143.311L163.978 144.204ZM163.888 144.644C163.856 144.801 163.822 144.958 163.788 145.114L159.428 144.156C159.457 144.021 159.486 143.886 159.514 143.751L163.888 144.644ZM163.322 146.972C163.235 147.279 163.144 147.585 163.048 147.888L158.79 146.545C158.872 146.285 158.951 146.022 159.026 145.757L163.322 146.972ZM162.417 149.698C162.302 149.998 162.184 150.294 162.061 150.589L157.941 148.869C158.047 148.616 158.149 148.36 158.247 148.103L162.417 149.698ZM161.269 152.334C161.128 152.622 160.983 152.907 160.834 153.189L156.887 151.104C157.015 150.861 157.14 150.616 157.261 150.369L161.269 152.334ZM159.888 154.856C159.722 155.13 159.552 155.4 159.378 155.668L155.635 153.235C155.784 153.005 155.93 152.773 156.073 152.537L159.888 154.856ZM158.286 157.243C158.097 157.5 157.903 157.754 157.706 158.004L154.196 155.247C154.365 155.031 154.532 154.812 154.695 154.591L158.286 157.243ZM156.479 159.475C156.267 159.714 156.052 159.949 155.833 160.182L152.581 157.123C152.77 156.922 152.955 156.719 153.138 156.513L156.479 159.475ZM154.481 161.536C154.249 161.756 154.014 161.971 153.776 162.183L150.806 158.85C151.012 158.667 151.215 158.481 151.415 158.291L154.481 161.536ZM152.311 163.414C152.061 163.611 151.808 163.805 151.552 163.996L148.885 160.416C149.106 160.251 149.325 160.083 149.541 159.912L152.311 163.414ZM149.986 165.093C149.72 165.268 149.452 165.44 149.181 165.607L146.834 161.809C147.069 161.664 147.301 161.516 147.531 161.365L149.986 165.093ZM147.526 166.564C147.246 166.716 146.964 166.863 146.679 167.007L144.669 163.021C144.916 162.896 145.16 162.769 145.403 162.638L147.526 166.564ZM144.949 167.818C144.657 167.945 144.363 168.067 144.067 168.186L142.408 164.041C142.664 163.939 142.919 163.832 143.171 163.723L144.949 167.818ZM142.274 168.845C141.972 168.946 141.669 169.043 141.364 169.135L140.066 164.864C140.331 164.784 140.593 164.7 140.855 164.612L142.274 168.845ZM139.52 169.638C139.211 169.713 138.901 169.783 138.589 169.85L137.663 165.482C137.933 165.425 138.202 165.364 138.47 165.299L139.52 169.638ZM136.71 170.192C136.395 170.24 136.08 170.284 135.764 170.323L135.215 165.893C135.49 165.859 135.763 165.821 136.035 165.779L136.71 170.192ZM133.862 170.503C133.545 170.524 133.227 170.541 132.908 170.553L132.741 166.092C133.017 166.081 133.293 166.067 133.568 166.049L133.862 170.503ZM130.999 170.57C130.681 170.564 130.363 170.553 130.044 170.538L130.257 166.079C130.534 166.092 130.81 166.101 131.085 166.107L130.999 170.57ZM128.141 170.394C127.826 170.361 127.511 170.323 127.195 170.281L127.783 165.856C128.057 165.892 128.331 165.925 128.604 165.953L128.141 170.394ZM125.312 169.978C125.156 169.948 125 169.917 124.843 169.885L125.736 165.511C125.873 165.539 126.009 165.566 126.145 165.592L125.312 169.978ZM124.843 169.885L124.4 169.795L125.294 165.421L125.736 165.511L124.843 169.885ZM122.63 169.433L121.745 169.253L122.639 164.879L123.524 165.059L122.63 169.433ZM119.975 168.891L119.09 168.71L119.984 164.336L120.869 164.517L119.975 168.891ZM117.32 168.349L116.435 168.168L117.328 163.794L118.213 163.975L117.32 168.349ZM114.665 167.806L113.78 167.626L114.673 163.252L115.558 163.432L114.665 167.806ZM112.01 167.264L111.125 167.083L112.018 162.709L112.903 162.89L112.01 167.264ZM109.355 166.722L108.47 166.541L109.363 162.167L110.248 162.348L109.355 166.722ZM106.699 166.179L105.814 165.999L106.708 161.625L107.593 161.805L106.699 166.179ZM104.044 165.637L103.159 165.456L104.053 161.082L104.938 161.263L104.044 165.637ZM101.389 165.095L100.504 164.914L101.397 160.54L102.283 160.721L101.389 165.095ZM98.7339 164.552L97.8489 164.372L98.7423 159.998L99.6274 160.178L98.7339 164.552ZM96.0788 164.01L95.1937 163.829L96.0871 159.455L96.9722 159.636L96.0788 164.01ZM93.4236 163.468L92.5386 163.287L93.432 158.913L94.317 159.094L93.4236 163.468ZM90.7685 162.925L89.8834 162.745L90.7768 158.371L91.6619 158.551L90.7685 162.925ZM88.1133 162.383L87.2282 162.202L88.1217 157.828L89.0067 158.009L88.1133 162.383ZM85.4581 161.841L84.5731 161.66L85.4665 157.286L86.3516 157.467L85.4581 161.841ZM82.803 161.298L81.9179 161.118L82.8113 156.744L83.6964 156.924L82.803 161.298ZM80.1478 160.756L79.2628 160.575L80.1562 156.201L81.0412 156.382L80.1478 160.756ZM77.4926 160.214L76.6076 160.033L77.501 155.659L78.3861 155.84L77.4926 160.214ZM74.8375 159.671L73.9524 159.491L74.8459 155.117L75.7309 155.297L74.8375 159.671ZM72.1823 159.129L71.2973 158.948L72.1907 154.574L73.0757 154.755L72.1823 159.129ZM69.5272 158.587L68.6421 158.406L69.5355 154.032L70.4206 154.213L69.5272 158.587ZM66.872 158.044L65.9869 157.864L66.8804 153.49L67.7654 153.67L66.872 158.044ZM64.2168 157.502L63.3318 157.321L64.2252 152.947L65.1103 153.128L64.2168 157.502ZM61.5617 156.96L60.6766 156.779L61.57 152.405L62.4551 152.586L61.5617 156.96ZM58.9065 156.417L58.0215 156.237L58.9149 151.863L59.7999 152.043L58.9065 156.417ZM56.2513 155.875L55.3663 155.694L56.2597 151.32L57.1448 151.501L56.2513 155.875ZM53.5962 155.333L52.7111 155.152L53.6046 150.778L54.4896 150.959L53.5962 155.333ZM50.941 154.79L50.056 154.61L50.9494 150.236L51.8344 150.416L50.941 154.79ZM48.2859 154.248L47.4008 154.067L48.2942 149.693L49.1793 149.874L48.2859 154.248ZM45.6307 153.706L44.7456 153.525L45.6391 149.151L46.5241 149.332L45.6307 153.706ZM42.9755 153.163L42.0905 152.983L42.9839 148.609L43.869 148.789L42.9755 153.163ZM40.3204 152.621L39.8779 152.531L40.7713 148.157L41.2138 148.247L40.3204 152.621ZM39.8779 152.531C39.7214 152.499 39.5653 152.466 39.4097 152.432L40.3637 148.07C40.4991 148.1 40.635 148.129 40.7713 148.157L39.8779 152.531ZM37.5588 151.973C37.2522 151.887 36.9475 151.798 36.645 151.705L37.9598 147.439C38.2226 147.52 38.4872 147.597 38.7538 147.671L37.5588 151.973ZM34.8373 151.092C34.538 150.981 34.241 150.865 33.9463 150.747L35.6174 146.607C35.873 146.71 36.1307 146.81 36.3904 146.906L34.8373 151.092ZM32.1971 149.982C31.9084 149.846 31.6223 149.706 31.3387 149.562L33.3566 145.58C33.6023 145.705 33.8504 145.826 34.1007 145.944L32.1971 149.982ZM29.6602 148.651C29.3846 148.491 29.1116 148.327 28.8415 148.159L31.1928 144.364C31.4268 144.509 31.6633 144.651 31.9021 144.79L29.6602 148.651ZM27.2468 147.107C26.986 146.924 26.7281 146.737 26.4733 146.548L29.1413 142.968C29.3621 143.133 29.5854 143.294 29.8113 143.453L27.2468 147.107ZM24.9746 145.362C24.7303 145.157 24.4892 144.949 24.2513 144.738L27.2168 141.401C27.4228 141.584 27.6316 141.764 27.8432 141.941L24.9746 145.362ZM22.8603 143.428C22.6345 143.203 22.4121 142.975 22.1931 142.744L25.4343 139.674C25.6239 139.874 25.8165 140.072 26.0121 140.267L22.8603 143.428ZM20.9195 141.32C20.714 141.076 20.512 140.83 20.3138 140.58L23.8073 137.801C23.9788 138.017 24.1536 138.23 24.3316 138.441L20.9195 141.32ZM19.1674 139.051C18.9836 138.791 18.8037 138.528 18.6277 138.262L22.3483 135.795C22.5006 136.025 22.6562 136.252 22.8152 136.477L19.1674 139.051ZM17.6176 136.639C17.4571 136.363 17.3006 136.086 17.1482 135.806L21.0692 133.671C21.2009 133.913 21.3361 134.153 21.4749 134.391L17.6176 136.639ZM16.283 134.1C16.1471 133.811 16.0154 133.52 15.888 133.228L19.9809 131.445C20.0909 131.698 20.2045 131.948 20.3218 132.198L16.283 134.1ZM15.1755 131.451C15.0656 131.152 14.9601 130.851 14.8589 130.548L19.0933 129.134C19.1805 129.395 19.2715 129.654 19.3663 129.912L15.1755 131.451ZM14.3063 128.714C14.2234 128.406 14.145 128.097 14.0712 127.786L18.4148 126.754C18.4783 127.022 18.5458 127.288 18.6172 127.554L14.3063 128.714ZM13.6845 125.909C13.6295 125.595 13.5791 125.279 13.5335 124.962L17.9521 124.325C17.9914 124.598 18.0347 124.869 18.082 125.139L13.6845 125.909ZM13.3171 123.058C13.2907 122.74 13.2689 122.421 13.252 122.101L17.7101 121.865C17.7246 122.14 17.7433 122.414 17.7661 122.688L13.3171 123.058ZM13.2085 120.185C13.2109 119.866 13.218 119.546 13.2301 119.226L17.6912 119.394C17.6809 119.669 17.6747 119.944 17.6727 120.218L13.2085 120.185ZM13.3595 117.313C13.3905 116.997 13.4263 116.68 13.4669 116.363L17.895 116.93C17.8601 117.203 17.8293 117.476 17.8026 117.748L13.3595 117.313ZM13.7665 114.471C13.7962 114.314 13.8271 114.157 13.8592 114L18.2332 114.893C18.2055 115.029 18.1788 115.164 18.1532 115.3L13.7665 114.471ZM13.8592 114L13.949 113.56L18.3231 114.453L18.2332 114.893L13.8592 114ZM14.3085 111.8L14.4883 110.92L18.8623 111.813L18.6825 112.693L14.3085 111.8ZM14.8477 109.16L15.0275 108.28L19.4015 109.173L19.2218 110.053L14.8477 109.16ZM15.387 106.52L15.5667 105.64L19.9407 106.533L19.761 107.413L15.387 106.52ZM15.9262 103.88L16.1059 103L20.4799 103.893L20.3002 104.773L15.9262 103.88ZM16.4654 101.24L16.6452 100.36L21.0192 101.253L20.8394 102.133L16.4654 101.24ZM17.0046 98.6L17.1844 97.7201L21.5584 98.6135L21.3787 99.4935L17.0046 98.6ZM17.5439 95.9601L17.7236 95.0801L22.0976 95.9736L21.9179 96.8535L17.5439 95.9601ZM18.0831 93.3202L18.2628 92.4402L22.6368 93.3336L22.4571 94.2136L18.0831 93.3202ZM18.6223 90.6802L18.8021 89.8003L23.1761 90.6937L22.9963 91.5737L18.6223 90.6802ZM19.1615 88.0403L19.3413 87.1603L23.7153 88.0538L23.5355 88.9337L19.1615 88.0403ZM19.7008 85.4004L19.8805 84.5204L24.2545 85.4138L24.0748 86.2938L19.7008 85.4004ZM20.24 82.7605L20.4197 81.8805L24.7937 82.7739L24.614 83.6539L20.24 82.7605ZM20.7792 80.1205L20.9589 79.2406L25.333 80.134L25.1532 81.0139L20.7792 80.1205ZM21.3184 77.4806L21.4982 76.6006L25.8722 77.494L25.6924 78.374L21.3184 77.4806ZM21.8577 74.8407L22.0374 73.9607L26.4114 74.8541L26.2317 75.7341L21.8577 74.8407ZM22.3969 72.2007L22.5766 71.3208L26.9506 72.2142L26.7709 73.0942L22.3969 72.2007ZM22.9361 69.5608L23.1158 68.6808L27.4899 69.5743L27.3101 70.4542L22.9361 69.5608ZM23.4753 66.9209L23.6551 66.0409L28.0291 66.9343L27.8493 67.8143L23.4753 66.9209ZM24.0145 64.281L24.1943 63.401L28.5683 64.2944L28.3886 65.1744L24.0145 64.281ZM24.5538 61.641L24.7335 60.7611L29.1075 61.6545L28.9278 62.5345L24.5538 61.641ZM25.093 59.0011L25.1829 58.5611L29.5569 59.4545L29.467 59.8945L25.093 59.0011ZM25.1829 58.5611C25.215 58.4039 25.2482 58.2472 25.2825 58.091L29.6428 59.049C29.6132 59.1837 29.5846 59.3189 29.5569 59.4545L25.1829 58.5611ZM25.7487 56.2334C25.8357 55.9259 25.927 55.6205 26.0226 55.3173L30.2803 56.6596C30.198 56.9205 30.1194 57.1834 30.0446 57.4482L25.7487 56.2334ZM26.6537 53.5066C26.7682 53.2075 26.8869 52.9107 27.0098 52.6164L31.1294 54.3365C31.0237 54.5896 30.9217 54.8447 30.8232 55.102L26.6537 53.5066ZM27.8011 50.871C27.9422 50.5832 28.0873 50.2982 28.2365 50.0158L32.1839 52.101C32.0557 52.3437 31.9309 52.5888 31.8097 52.8361L27.8011 50.871ZM29.1823 48.3488C29.3485 48.0754 29.5186 47.8049 29.6924 47.5373L33.4359 49.9697C33.2864 50.1998 33.1401 50.4325 32.9972 50.6676L29.1823 48.3488ZM30.7842 45.9624C30.974 45.7054 31.1675 45.4514 31.3645 45.2006L34.875 47.9586C34.7054 48.1746 34.5388 48.3932 34.3754 48.6145L30.7842 45.9624ZM32.592 43.7303C32.8038 43.4914 33.019 43.2558 33.2375 43.0235L36.4891 46.0825C36.3007 46.2828 36.1152 46.4859 35.9326 46.6918L32.592 43.7303ZM34.5897 41.6686C34.8216 41.4495 35.0566 41.2338 35.2948 41.0217L38.2642 44.3552C38.0586 44.5384 37.8557 44.7245 37.6555 44.9136L34.5897 41.6686ZM36.7597 39.7916C37.0097 39.5938 37.2626 39.3996 37.5182 39.2092L40.1852 42.7894C39.9642 42.954 39.7456 43.1218 39.5296 43.2927L36.7597 39.7916ZM39.0841 38.1119C39.3501 37.9367 39.6188 37.7654 39.8899 37.5979L42.2362 41.3959C42.0016 41.5408 41.7692 41.689 41.5391 41.8406L39.0841 38.1119ZM41.5442 36.6406C41.8243 36.4892 42.1067 36.3417 42.3913 36.1982L44.4011 40.1845C44.1547 40.3087 43.9103 40.4364 43.6678 40.5675L41.5442 36.6406ZM44.1214 35.3873C44.4135 35.2606 44.7076 35.1379 45.0036 35.0193L46.663 39.1638C46.4067 39.2664 46.152 39.3727 45.8991 39.4825L44.1214 35.3873ZM46.7967 34.3604C47.0983 34.2592 47.4018 34.1623 47.7069 34.0696L49.0042 38.3413C48.74 38.4215 48.4772 38.5055 48.2159 38.5931L46.7967 34.3604ZM49.5504 33.5669C49.8593 33.4921 50.1696 33.4217 50.4813 33.3556L51.4074 37.7228C51.1374 37.78 50.8686 37.8411 50.601 37.9059L49.5504 33.5669ZM52.361 33.0129C52.6751 32.9648 52.9904 32.9212 53.3068 32.8821L53.8551 37.3126C53.581 37.3465 53.3079 37.3843 53.0357 37.4259L52.361 33.0129ZM55.2082 32.7017C55.5255 32.6807 55.8436 32.6642 56.1625 32.6522L56.33 37.1134C56.0535 37.1238 55.7778 37.1381 55.5029 37.1562L55.2082 32.7017ZM58.0714 32.6348C58.3891 32.641 58.7074 32.6516 59.0263 32.6668L58.8137 37.1261C58.537 37.1129 58.2608 37.1037 57.9852 37.0983L58.0714 32.6348ZM60.9298 32.8115C61.2447 32.8444 61.5599 32.8818 61.8754 32.9237L61.2878 37.3491C61.0136 37.3127 60.7397 37.2803 60.4662 37.2517L60.9298 32.8115ZM63.7581 33.2272C63.9145 33.2569 64.071 33.2877 64.2275 33.3197L63.3341 37.6937C63.1978 37.6659 63.0616 37.639 62.9254 37.6132L63.7581 33.2272ZM64.2275 33.3197L64.6701 33.4101L63.7766 37.7841L63.3341 37.6937L64.2275 33.3197ZM66.4402 33.7717L67.3252 33.9524L66.4318 38.3264L65.5468 38.1457L66.4402 33.7717ZM69.0953 34.314L69.9804 34.4948L69.087 38.8688L68.2019 38.688L69.0953 34.314ZM71.7505 34.8563L72.6356 35.0371L71.7421 39.4111L70.8571 39.2303L71.7505 34.8563ZM74.4057 35.3987L75.2907 35.5794L74.3973 39.9535L73.5122 39.7727L74.4057 35.3987ZM77.0608 35.941L77.9459 36.1218L77.0524 40.4958L76.1674 40.315L77.0608 35.941ZM79.716 36.4833L80.601 36.6641L79.7076 41.0381L78.8226 40.8573L79.716 36.4833ZM82.3711 37.0257L83.2562 37.2064L82.3628 41.5805L81.4777 41.3997L82.3711 37.0257ZM85.0263 37.568L85.9114 37.7488L85.0179 42.1228L84.1329 41.942L85.0263 37.568ZM87.6815 38.1103L88.5665 38.2911L87.6731 42.6651L86.788 42.4843L87.6815 38.1103ZM90.3366 38.6527L91.2217 38.8335L90.3283 43.2075L89.4432 43.0267L90.3366 38.6527ZM92.9918 39.195L93.8768 39.3758L92.9834 43.7498L92.0984 43.569L92.9918 39.195ZM95.6469 39.7373L96.532 39.9181L95.6386 44.2921L94.7535 44.1114L95.6469 39.7373ZM98.3021 40.2797L99.1872 40.4605L98.2937 44.8345L97.4087 44.6537L98.3021 40.2797ZM100.957 40.822L101.842 41.0028L100.949 45.3768L100.064 45.196L100.957 40.822ZM103.612 41.3643L104.497 41.5451L103.604 45.9191L102.719 45.7384L103.612 41.3643ZM106.268 41.9067L107.153 42.0875L106.259 46.4615L105.374 46.2807L106.268 41.9067ZM108.923 42.449L109.808 42.6298L108.914 47.0038L108.029 46.823L108.923 42.449ZM111.578 42.9914L112.463 43.1721L111.57 47.5461L110.684 47.3654L111.578 42.9914ZM114.233 43.5337L115.118 43.7145L114.225 48.0885L113.34 47.9077L114.233 43.5337ZM116.888 44.076L117.773 44.2568L116.88 48.6308L115.995 48.45L116.888 44.076ZM119.543 44.6184L120.428 44.7991L119.535 49.1731L118.65 48.9924L119.543 44.6184ZM122.199 45.1607L123.084 45.3415L122.19 49.7155L121.305 49.5347L122.199 45.1607ZM124.854 45.703L125.739 45.8838L124.845 50.2578L123.96 50.077L124.854 45.703ZM127.509 46.2454L128.394 46.4261L127.501 50.8002L126.615 50.6194L127.509 46.2454ZM130.164 46.7877L131.049 46.9685L130.156 51.3425L129.271 51.1617L130.164 46.7877ZM132.819 47.33L133.704 47.5108L132.811 51.8848L131.926 51.704L132.819 47.33ZM135.474 47.8724L136.359 48.0531L135.466 52.4272L134.581 52.2464L135.474 47.8724ZM138.13 48.4147L139.015 48.5955L138.121 52.9695L137.236 52.7887L138.13 48.4147ZM140.785 48.957L141.67 49.1378L140.776 53.5118L139.891 53.331L140.785 48.957ZM143.44 49.4994L144.325 49.6802L143.431 54.0542L142.546 53.8734L143.44 49.4994ZM146.095 50.0417L146.98 50.2225L146.087 54.5965L145.202 54.4157L146.095 50.0417ZM148.75 50.584L149.193 50.6744L148.299 55.0484L147.857 54.9581L148.75 50.584ZM149.193 50.6744C149.349 50.7064 149.505 50.7394 149.661 50.7734L148.707 55.1346C148.571 55.105 148.436 55.0763 148.299 55.0484L149.193 50.6744ZM151.512 51.2325C151.818 51.3177 152.123 51.4069 152.426 51.5002L151.111 55.7665C150.848 55.6855 150.583 55.608 150.317 55.5339L151.512 51.2325ZM154.233 52.1135C154.533 52.2246 154.83 52.3396 155.124 52.4586L153.453 56.5983C153.198 56.4951 152.94 56.3953 152.68 56.299L154.233 52.1135ZM156.873 53.2231C157.162 53.3592 157.448 53.4991 157.732 53.6428L155.714 57.6251C155.468 57.5005 155.22 57.3792 154.97 57.2612L156.873 53.2231ZM159.41 54.5544C159.686 54.7145 159.959 54.8783 160.229 55.0456L157.878 58.8406C157.644 58.6956 157.407 58.5537 157.168 58.415L159.41 54.5544ZM161.824 56.098C162.085 56.2811 162.342 56.4676 162.597 56.6575L159.929 60.2369C159.708 60.0724 159.485 59.9108 159.259 59.7522L161.824 56.098ZM164.096 57.8429C164.34 58.0478 164.581 58.256 164.819 58.4673L161.854 61.8044C161.648 61.6214 161.439 61.4411 161.227 61.2636L164.096 57.8429ZM166.21 59.7766C166.436 60.0017 166.658 60.2299 166.877 60.4611L163.636 63.5311C163.447 63.3309 163.254 63.1333 163.058 62.9384L166.21 59.7766ZM168.151 61.8855C168.357 62.1291 168.559 62.3755 168.757 62.6247L165.263 65.4042C165.092 65.1885 164.917 64.9752 164.739 64.7643L168.151 61.8855ZM169.903 64.154C170.087 64.4144 170.267 64.6774 170.443 64.9428L166.722 67.4101C166.57 67.1804 166.414 66.9529 166.255 66.7276L169.903 64.154ZM171.453 66.5663C171.613 66.8417 171.77 67.1195 171.922 67.3995L168.001 69.5339C167.87 69.292 167.734 69.0519 167.596 68.8138L171.453 66.5663ZM172.788 69.1055C172.923 69.3941 173.055 69.6846 173.183 69.9771L169.09 71.7599C168.98 71.5075 168.866 71.2567 168.749 71.0076L172.788 69.1055ZM173.895 71.7537C174.005 72.0531 174.11 72.3542 174.212 72.6571L169.977 74.0714C169.89 73.8103 169.799 73.5507 169.704 73.2926L173.895 71.7537ZM174.764 74.491C174.847 74.799 174.926 75.1085 174.999 75.4194L170.656 76.4507C170.592 76.1831 170.525 75.9166 170.453 75.6514L174.764 74.491ZM175.386 77.2962C175.441 77.6105 175.491 77.9261 175.537 78.2427L171.118 78.8798C171.079 78.6075 171.036 78.3361 170.989 78.0657L175.386 77.2962ZM175.753 80.1472C175.78 80.4654 175.802 80.7845 175.819 81.1045L171.36 81.3403C171.346 81.0652 171.327 80.7909 171.304 80.5173L175.753 80.1472ZM175.862 83.0205C175.86 83.3394 175.853 83.6589 175.84 83.979L171.379 83.8115C171.39 83.5363 171.396 83.2615 171.398 82.9873L175.862 83.0205ZM175.711 85.8922C175.68 86.2086 175.644 86.5253 175.604 86.8423L171.176 86.2752C171.21 86.0022 171.241 85.7296 171.268 85.4573L175.711 85.8922ZM175.304 88.7339C175.274 88.8911 175.243 89.0483 175.211 89.2055L170.837 88.312C170.865 88.1764 170.892 88.0408 170.917 87.9053L175.304 88.7339ZM148.746 52.8614L149.639 48.4874L148.746 52.8614ZM63.7808 35.5067L62.8874 39.8807L63.7808 35.5067ZM177.398 89.6522L177.309 90.0922L168.56 88.3053L168.65 87.8653L177.398 89.6522ZM176.949 91.8521L176.769 92.7321L168.021 90.9452L168.201 90.0653L176.949 91.8521ZM176.41 94.492L176.23 95.372L167.482 93.5852L167.662 92.7052L176.41 94.492ZM175.871 97.132L175.691 98.0119L166.943 96.2251L167.123 95.3451L175.871 97.132ZM175.331 99.7719L175.152 100.652L166.404 98.865L166.583 97.985L175.331 99.7719ZM174.792 102.412L174.612 103.292L165.864 101.505L166.044 100.625L174.792 102.412ZM174.253 105.052L174.073 105.932L165.325 104.145L165.505 103.265L174.253 105.052ZM173.714 107.692L173.534 108.572L164.786 106.785L164.966 105.905L173.714 107.692ZM173.174 110.332L172.995 111.212L164.247 109.425L164.426 108.545L173.174 110.332ZM172.635 112.972L172.455 113.852L163.707 112.065L163.887 111.185L172.635 112.972ZM172.096 115.611L171.916 116.491L163.168 114.705L163.348 113.825L172.096 115.611ZM171.557 118.251L171.377 119.131L162.629 117.345L162.809 116.465L171.557 118.251ZM171.018 120.891L170.838 121.771L162.09 119.984L162.27 119.104L171.018 120.891ZM170.478 123.531L170.299 124.411L161.551 122.624L161.73 121.744L170.478 123.531ZM169.939 126.171L169.759 127.051L161.011 125.264L161.191 124.384L169.939 126.171ZM169.4 128.811L169.22 129.691L160.472 127.904L160.652 127.024L169.4 128.811ZM168.861 131.451L168.681 132.331L159.933 130.544L160.113 129.664L168.861 131.451ZM168.321 134.091L168.142 134.971L159.394 133.184L159.573 132.304L168.321 134.091ZM167.782 136.731L167.602 137.611L158.854 135.824L159.034 134.944L167.782 136.731ZM167.243 139.371L167.063 140.251L158.315 138.464L158.495 137.584L167.243 139.371ZM166.704 142.011L166.524 142.891L157.776 141.104L157.956 140.224L166.704 142.011ZM166.165 144.651L166.075 145.091L157.327 143.304L157.417 142.864L166.165 144.651ZM166.075 145.091C166.04 145.259 166.005 145.426 165.968 145.593L157.248 143.677C157.275 143.553 157.301 143.429 157.327 143.304L166.075 145.091ZM165.47 147.579C165.377 147.908 165.279 148.235 165.177 148.559L156.661 145.874C156.737 145.635 156.809 145.393 156.878 145.149L165.47 147.579ZM164.502 150.496C164.379 150.816 164.252 151.134 164.121 151.449L155.881 148.008C155.978 147.776 156.072 147.542 156.163 147.305L164.502 150.496ZM163.274 153.317C163.123 153.625 162.967 153.93 162.808 154.232L154.913 150.062C155.031 149.839 155.145 149.614 155.257 149.386L163.274 153.317ZM161.796 156.016C161.618 156.308 161.436 156.598 161.25 156.884L153.763 152.019C153.9 151.808 154.035 151.594 154.166 151.378L161.796 156.016ZM160.082 158.569C159.879 158.844 159.672 159.115 159.461 159.383L152.44 153.868C152.596 153.669 152.749 153.468 152.9 153.265L160.082 158.569ZM158.149 160.956C157.922 161.211 157.692 161.463 157.459 161.711L150.956 155.593C151.129 155.409 151.3 155.222 151.468 155.032L158.149 160.956ZM156.014 163.159C155.766 163.393 155.515 163.624 155.261 163.85L149.322 157.183C149.511 157.014 149.698 156.843 149.882 156.669L156.014 163.159ZM153.696 165.164C153.429 165.375 153.159 165.583 152.886 165.786L147.552 158.626C147.756 158.474 147.957 158.319 148.156 158.162L153.696 165.164ZM151.214 166.957C150.93 167.144 150.643 167.327 150.354 167.506L145.661 159.91C145.877 159.777 146.092 159.64 146.304 159.5L151.214 166.957ZM148.588 168.528C148.289 168.69 147.988 168.847 147.684 169L143.665 161.027C143.892 160.913 144.117 160.795 144.341 160.674L148.588 168.528ZM145.838 169.865C145.526 170.001 145.212 170.131 144.897 170.258L141.578 161.969C141.814 161.874 142.049 161.776 142.283 161.675L145.838 169.865ZM142.984 170.961C142.662 171.069 142.338 171.172 142.012 171.271L139.418 162.728C139.661 162.654 139.904 162.576 140.145 162.496L142.984 170.961ZM140.045 171.808C139.716 171.887 139.385 171.963 139.052 172.033L137.2 163.299C137.449 163.246 137.697 163.19 137.944 163.13L140.045 171.808ZM137.047 172.399C136.712 172.45 136.375 172.497 136.038 172.538L134.941 163.677C135.194 163.646 135.446 163.611 135.697 163.573L137.047 172.399ZM134.01 172.731C133.671 172.753 133.332 172.771 132.992 172.783L132.657 163.861C132.912 163.852 133.167 163.838 133.42 163.822L134.01 172.731ZM130.956 172.802C130.617 172.795 130.278 172.784 129.938 172.768L130.363 163.849C130.619 163.862 130.874 163.87 131.128 163.875L130.956 172.802ZM127.909 172.614C127.573 172.579 127.238 172.539 126.901 172.494L128.077 163.643C128.33 163.677 128.583 163.707 128.836 163.733L127.909 172.614ZM124.896 172.171C124.73 172.139 124.563 172.106 124.396 172.072L126.183 163.324C126.309 163.35 126.435 163.375 126.562 163.399L124.896 172.171ZM124.396 172.072L123.954 171.982L125.741 163.234L126.183 163.324L124.396 172.072ZM122.184 171.62L121.299 171.44L123.085 162.692L123.971 162.872L122.184 171.62ZM119.529 171.078L118.643 170.897L120.43 162.149L121.315 162.33L119.529 171.078ZM116.873 170.536L115.988 170.355L117.775 161.607L118.66 161.788L116.873 170.536ZM114.218 169.993L113.333 169.813L115.12 161.065L116.005 161.245L114.218 169.993ZM111.563 169.451L110.678 169.27L112.465 160.522L113.35 160.703L111.563 169.451ZM108.908 168.909L108.023 168.728L109.81 159.98L110.695 160.161L108.908 168.909ZM106.253 168.366L105.368 168.186L107.154 159.438L108.04 159.618L106.253 168.366ZM103.598 167.824L102.712 167.643L104.499 158.895L105.384 159.076L103.598 167.824ZM100.942 167.282L100.057 167.101L101.844 158.353L102.729 158.534L100.942 167.282ZM98.2872 166.739L97.4022 166.559L99.189 157.811L100.074 157.991L98.2872 166.739ZM95.6321 166.197L94.747 166.016L96.5339 157.268L97.4189 157.449L95.6321 166.197ZM92.9769 165.655L92.0919 165.474L93.8787 156.726L94.7637 156.907L92.9769 165.655ZM90.3217 165.112L89.4367 164.932L91.2235 156.184L92.1086 156.364L90.3217 165.112ZM87.6666 164.57L86.7815 164.389L88.5684 155.641L89.4534 155.822L87.6666 164.57ZM85.0114 164.028L84.1264 163.847L85.9132 155.099L86.7983 155.28L85.0114 164.028ZM82.3563 163.485L81.4712 163.305L83.258 154.557L84.1431 154.737L82.3563 163.485ZM79.7011 162.943L78.816 162.762L80.6029 154.014L81.4879 154.195L79.7011 162.943ZM77.0459 162.401L76.1609 162.22L77.9477 153.472L78.8328 153.653L77.0459 162.401ZM74.3908 161.858L73.5057 161.678L75.2926 152.93L76.1776 153.11L74.3908 161.858ZM71.7356 161.316L70.8506 161.135L72.6374 152.387L73.5225 152.568L71.7356 161.316ZM69.0804 160.774L68.1954 160.593L69.9822 151.845L70.8673 152.026L69.0804 160.774ZM66.4253 160.231L65.5402 160.051L67.3271 151.303L68.2121 151.483L66.4253 160.231ZM63.7701 159.689L62.8851 159.508L64.6719 150.76L65.557 150.941L63.7701 159.689ZM61.115 159.147L60.2299 158.966L62.0168 150.218L62.9018 150.399L61.115 159.147ZM58.4598 158.604L57.5747 158.424L59.3616 149.676L60.2466 149.856L58.4598 158.604ZM55.8046 158.062L54.9196 157.881L56.7064 149.133L57.5915 149.314L55.8046 158.062ZM53.1495 157.52L52.2644 157.339L54.0513 148.591L54.9363 148.772L53.1495 157.52ZM50.4943 156.977L49.6093 156.797L51.3961 148.049L52.2812 148.229L50.4943 156.977ZM47.8392 156.435L46.9541 156.254L48.7409 147.506L49.626 147.687L47.8392 156.435ZM45.184 155.893L44.2989 155.712L46.0858 146.964L46.9708 147.145L45.184 155.893ZM42.5288 155.35L41.6438 155.17L43.4306 146.422L44.3157 146.602L42.5288 155.35ZM39.8737 154.808L39.4312 154.718L41.218 145.97L41.6605 146.06L39.8737 154.808ZM39.4312 154.718C39.2646 154.684 39.0984 154.648 38.9328 154.612L40.8407 145.89C40.9661 145.917 41.0918 145.944 41.218 145.97L39.4312 154.718ZM36.9613 154.123C36.6346 154.033 36.31 153.937 35.9876 153.838L38.6172 145.305C38.8601 145.38 39.1048 145.452 39.3512 145.52L36.9613 154.123ZM34.0607 153.184C33.7416 153.066 33.4249 152.943 33.1107 152.816L36.4529 144.537C36.689 144.632 36.927 144.724 37.1669 144.813L34.0607 153.184ZM31.2454 152.001C30.9375 151.856 30.6322 151.707 30.3297 151.553L34.3655 143.589C34.5924 143.704 34.8214 143.816 35.0524 143.925L31.2454 152.001ZM28.5393 150.581C28.2452 150.41 27.954 150.235 27.6659 150.057L32.3685 142.467C32.5844 142.601 32.8026 142.732 33.0231 142.86L28.5393 150.581ZM25.9645 148.934C25.6863 148.739 25.4112 148.54 25.1393 148.337L30.4754 141.179C30.679 141.33 30.8851 141.479 31.0936 141.626L25.9645 148.934ZM23.5403 147.073C23.2796 146.854 23.0224 146.632 22.7686 146.406L28.6995 139.732C28.8896 139.901 29.0823 140.067 29.2775 140.231L23.5403 147.073ZM21.2845 145.009C21.0435 144.769 20.8061 144.526 20.5725 144.279L27.0549 138.139C27.2298 138.324 27.4075 138.506 27.588 138.686L21.2845 145.009ZM19.2135 142.759C18.9941 142.499 18.7786 142.236 18.5671 141.97L25.554 136.411C25.7123 136.61 25.8735 136.807 26.0376 137.001L19.2135 142.759ZM17.3435 140.338C17.1474 140.06 16.9553 139.779 16.7674 139.496L24.2086 134.561C24.349 134.773 24.4925 134.983 24.6391 135.191L17.3435 140.338ZM15.6889 137.763C15.5176 137.468 15.3505 137.172 15.1877 136.873L23.0297 132.604C23.151 132.827 23.2757 133.048 23.4035 133.267L15.6889 137.763ZM14.2635 135.051C14.1184 134.742 13.9777 134.432 13.8416 134.119L22.0273 130.554C22.1286 130.786 22.2332 131.017 22.3413 131.246L14.2635 135.051ZM13.0802 132.221C12.9627 131.901 12.8498 131.579 12.7417 131.255L21.2105 128.427C21.2907 128.667 21.3744 128.906 21.4616 129.143L13.0802 132.221ZM12.1509 129.294C12.0622 128.965 11.9784 128.634 11.8994 128.301L20.5865 126.239C20.645 126.485 20.707 126.73 20.7726 126.974L12.1509 129.294ZM11.4857 126.294C11.4269 125.957 11.373 125.62 11.3242 125.281L20.1614 124.007C20.1975 124.257 20.2373 124.506 20.2807 124.755L11.4857 126.294ZM11.0927 123.243C11.0643 122.902 11.0411 122.561 11.023 122.218L19.9391 121.747C19.9525 122 19.9697 122.251 19.9906 122.503L11.0927 123.243ZM10.9764 120.168C10.9789 119.827 10.9866 119.485 10.9995 119.142L19.9218 119.477C19.9123 119.73 19.9067 119.983 19.9048 120.234L10.9764 120.168ZM11.138 117.095C11.1711 116.757 11.2094 116.418 11.2528 116.079L20.1091 117.213C20.077 117.464 20.0487 117.715 20.0242 117.965L11.138 117.095ZM11.5731 114.057C11.6048 113.889 11.6379 113.721 11.6722 113.553L20.4202 115.34C20.3947 115.465 20.3701 115.589 20.3466 115.714L11.5731 114.057ZM11.6722 113.553L11.762 113.113L20.5101 114.9L20.4202 115.34L11.6722 113.553ZM12.1215 111.353L12.3013 110.473L21.0493 112.26L20.8695 113.14L12.1215 111.353ZM12.6607 108.713L12.8405 107.833L21.5885 109.62L21.4088 110.5L12.6607 108.713ZM13.2 106.073L13.3797 105.193L22.1277 106.98L21.948 107.86L13.2 106.073ZM13.7392 103.433L13.9189 102.553L22.667 104.34L22.4872 105.22L13.7392 103.433ZM14.2784 100.793L14.4582 99.9133L23.2062 101.7L23.0264 102.58L14.2784 100.793ZM14.8176 98.1533L14.9974 97.2733L23.7454 99.0602L23.5657 99.9402L14.8176 98.1533ZM15.3569 95.5134L15.5366 94.6334L24.2846 96.4203L24.1049 97.3002L15.3569 95.5134ZM15.8961 92.8735L16.0758 91.9935L24.8238 93.7803L24.6441 94.6603L15.8961 92.8735ZM16.4353 90.2335L16.615 89.3536L25.3631 91.1404L25.1833 92.0204L16.4353 90.2335ZM16.9745 87.5936L17.1543 86.7136L25.9023 88.5005L25.7226 89.3804L16.9745 87.5936ZM17.5138 84.9537L17.6935 84.0737L26.4415 85.8605L26.2618 86.7405L17.5138 84.9537ZM18.053 82.3137L18.2327 81.4338L26.9807 83.2206L26.801 84.1006L18.053 82.3137ZM18.5922 79.6738L18.7719 78.7938L27.52 80.5807L27.3402 81.4607L18.5922 79.6738ZM19.1314 77.0339L19.3112 76.1539L28.0592 77.9408L27.8794 78.8207L19.1314 77.0339ZM19.6706 74.394L19.8504 73.514L28.5984 75.3008L28.4187 76.1808L19.6706 74.394ZM20.2099 71.754L20.3896 70.8741L29.1376 72.6609L28.9579 73.5409L20.2099 71.754ZM20.7491 69.1141L20.9288 68.2341L29.6769 70.021L29.4971 70.9009L20.7491 69.1141ZM21.2883 66.4742L21.4681 65.5942L30.2161 67.381L30.0363 68.261L21.2883 66.4742ZM21.8275 63.8342L22.0073 62.9543L30.7553 64.7411L30.5756 65.6211L21.8275 63.8342ZM22.3668 61.1943L22.5465 60.3143L31.2945 62.1012L31.1148 62.9812L22.3668 61.1943ZM22.906 58.5544L22.9959 58.1144L31.7439 59.9012L31.654 60.3412L22.906 58.5544ZM22.9959 58.1144C23.0302 57.9464 23.0657 57.779 23.1024 57.612L31.823 59.528C31.7957 59.652 31.7694 59.7764 31.7439 59.9012L22.9959 58.1144ZM23.6008 55.626C23.6938 55.2971 23.7914 54.9705 23.8937 54.6461L32.4092 57.3307C32.3336 57.5705 32.2613 57.8122 32.1925 58.0556L23.6008 55.626ZM24.5689 52.7089C24.6914 52.3888 24.8185 52.0712 24.95 51.7563L33.1892 55.1966C33.0922 55.429 32.9984 55.6634 32.908 55.8997L24.5689 52.7089ZM25.7969 49.8884C25.9478 49.5805 26.1031 49.2754 26.2628 48.9733L34.1576 53.1435C34.0399 53.3665 33.9253 53.5915 33.814 53.8186L25.7969 49.8884ZM27.2749 47.1893C27.4527 46.8968 27.6347 46.6074 27.8207 46.3211L35.3077 51.1859C35.1702 51.3973 35.0359 51.6111 34.9046 51.827L27.2749 47.1893ZM28.9885 44.6364C29.1916 44.3615 29.3985 44.0899 29.6092 43.8217L36.6303 49.3375C36.4743 49.5361 36.3212 49.7371 36.171 49.9405L28.9885 44.6364ZM30.9217 42.2495C31.1481 41.9941 31.3782 41.7423 31.6118 41.494L38.1149 47.612C37.9415 47.7963 37.7708 47.9832 37.6029 48.1726L30.9217 42.2495ZM33.0567 40.0461C33.3045 39.8119 33.5556 39.5815 33.81 39.3549L39.749 46.022C39.5596 46.1906 39.3728 46.3621 39.1885 46.5362L33.0567 40.0461ZM35.3748 38.041C35.6417 37.8298 35.9118 37.6225 36.1848 37.4191L41.5186 44.5795C41.315 44.7312 41.1136 44.8858 40.9146 45.0432L35.3748 38.041ZM37.8565 36.2476C38.1405 36.0606 38.4273 35.8777 38.7167 35.6989L43.4094 43.2949C43.1931 43.4285 42.9788 43.5652 42.7667 43.7049L37.8565 36.2476ZM40.4824 34.6772C40.7813 34.5155 41.0827 34.3581 41.3864 34.205L45.406 42.1777C45.1787 42.2923 44.9532 42.41 44.7296 42.5309L40.4824 34.6772ZM43.2326 33.3398C43.5442 33.2045 43.8581 33.0736 44.1739 32.9471L47.4927 41.236C47.2562 41.3307 47.0212 41.4287 46.7879 41.53L43.2326 33.3398ZM46.087 32.244C46.4089 32.1361 46.7327 32.0327 47.0582 31.9338L49.6529 40.4771C49.4091 40.5512 49.1666 40.6286 48.9255 40.7095L46.087 32.244ZM49.0251 31.3975C49.3546 31.3177 49.6857 31.2425 50.0183 31.172L51.8705 39.9064C51.6213 39.9592 51.3733 40.0155 51.1264 40.0753L49.0251 31.3975ZM52.0236 30.8063C52.3587 30.7551 52.6951 30.7086 53.0326 30.6668L54.1293 39.5278C53.8763 39.5591 53.6243 39.594 53.3731 39.6324L52.0236 30.8063ZM55.0609 30.4744C55.3993 30.452 55.7386 30.4344 56.0788 30.4216L56.4138 39.344C56.1585 39.3536 55.904 39.3668 55.6502 39.3835L55.0609 30.4744ZM58.1145 30.4031C58.4533 30.4096 58.7927 30.421 59.1327 30.4372L58.7074 39.3557C58.4518 39.3435 58.1967 39.335 57.9421 39.3301L58.1145 30.4031ZM61.1616 30.5914C61.4971 30.6265 61.833 30.6663 62.1691 30.7109L60.994 39.5619C60.7404 39.5282 60.4872 39.4982 60.2344 39.4718L61.1616 30.5914ZM64.1744 31.0342C64.341 31.0658 64.5076 31.0987 64.6743 31.1327L62.8874 39.8807C62.7612 39.855 62.6351 39.8301 62.509 39.8062L64.1744 31.0342ZM64.6743 31.1327L65.1168 31.2231L63.3299 39.9711L62.8874 39.8807L64.6743 31.1327ZM66.8869 31.5847L67.7719 31.7654L65.9851 40.5135L65.1 40.3327L66.8869 31.5847ZM69.542 32.127L70.4271 32.3078L68.6403 41.0558L67.7552 40.875L69.542 32.127ZM72.1972 32.6693L73.0823 32.8501L71.2954 41.5981L70.4104 41.4173L72.1972 32.6693ZM74.8524 33.2117L75.7374 33.3924L73.9506 42.1405L73.0655 41.9597L74.8524 33.2117ZM77.5075 33.754L78.3926 33.9348L76.6057 42.6828L75.7207 42.502L77.5075 33.754ZM80.1627 34.2963L81.0477 34.4771L79.2609 43.2251L78.3758 43.0443L80.1627 34.2963ZM82.8179 34.8387L83.7029 35.0194L81.9161 43.7675L81.031 43.5867L82.8179 34.8387ZM85.473 35.381L86.3581 35.5618L84.5712 44.3098L83.6862 44.129L85.473 35.381ZM88.1282 35.9233L89.0132 36.1041L87.2264 44.8521L86.3413 44.6714L88.1282 35.9233ZM90.7833 36.4657L91.6684 36.6464L89.8815 45.3945L88.9965 45.2137L90.7833 36.4657ZM93.4385 37.008L94.3235 37.1888L92.5367 45.9368L91.6516 45.756L93.4385 37.008ZM96.0936 37.5503L96.9787 37.7311L95.1919 46.4791L94.3068 46.2984L96.0936 37.5503ZM98.7488 38.0927L99.6339 38.2735L97.847 47.0215L96.962 46.8407L98.7488 38.0927ZM101.404 38.635L102.289 38.8158L100.502 47.5638L99.6171 47.383L101.404 38.635ZM104.059 39.1773L104.944 39.3581L103.157 48.1061L102.272 47.9254L104.059 39.1773ZM106.714 39.7197L107.599 39.9005L105.813 48.6485L104.927 48.4677L106.714 39.7197ZM109.369 40.262L110.255 40.4428L108.468 49.1908L107.583 49.01L109.369 40.262ZM112.025 40.8043L112.91 40.9851L111.123 49.7331L110.238 49.5524L112.025 40.8043ZM114.68 41.3467L115.565 41.5275L113.778 50.2755L112.893 50.0947L114.68 41.3467ZM117.335 41.889L118.22 42.0698L116.433 50.8178L115.548 50.637L117.335 41.889ZM119.99 42.4314L120.875 42.6121L119.088 51.3602L118.203 51.1794L119.99 42.4314ZM122.645 42.9737L123.53 43.1545L121.743 51.9025L120.858 51.7217L122.645 42.9737ZM125.3 43.516L126.185 43.6968L124.399 52.4448L123.514 52.264L125.3 43.516ZM127.956 44.0584L128.841 44.2391L127.054 52.9872L126.169 52.8064L127.956 44.0584ZM130.611 44.6007L131.496 44.7815L129.709 53.5295L128.824 53.3487L130.611 44.6007ZM133.266 45.143L134.151 45.3238L132.364 54.0718L131.479 53.891L133.266 45.143ZM135.921 45.6854L136.806 45.8661L135.019 54.6142L134.134 54.4334L135.921 45.6854ZM138.576 46.2277L139.461 46.4085L137.674 55.1565L136.789 54.9757L138.576 46.2277ZM141.231 46.77L142.116 46.9508L140.33 55.6988L139.445 55.5181L141.231 46.77ZM143.887 47.3124L144.772 47.4931L142.985 56.2412L142.1 56.0604L143.887 47.3124ZM146.542 47.8547L147.427 48.0355L145.64 56.7835L144.755 56.6027L146.542 47.8547ZM149.197 48.397L149.639 48.4874L147.853 57.2354L147.41 57.1451L149.197 48.397ZM149.639 48.4874C149.806 48.5215 149.972 48.5566 150.138 48.5928L148.23 57.3152C148.105 57.2878 147.979 57.2612 147.853 57.2354L149.639 48.4874ZM152.109 49.0818C152.436 49.1726 152.761 49.2676 153.083 49.367L150.453 57.8997C150.21 57.8248 149.966 57.7531 149.719 57.6846L152.109 49.0818ZM155.01 50.0208C155.329 50.1392 155.646 50.2618 155.96 50.3887L152.618 58.6682C152.382 58.5729 152.144 58.4807 151.904 58.3917L155.01 50.0208ZM157.825 51.204C158.133 51.3492 158.438 51.4984 158.741 51.6517L154.705 59.6162C154.478 59.5012 154.249 59.3892 154.018 59.2803L157.825 51.204ZM160.531 52.6241C160.825 52.7949 161.117 52.9696 161.405 53.1482L156.702 60.7381C156.486 60.6043 156.268 60.4733 156.047 60.3453L160.531 52.6241ZM163.106 54.2709C163.384 54.4662 163.659 54.6652 163.931 54.8678L158.595 62.0266C158.392 61.8748 158.185 61.7257 157.977 61.5794L163.106 54.2709ZM165.53 56.1325C165.791 56.3511 166.048 56.5732 166.302 56.7988L160.371 63.473C160.181 63.3041 159.988 63.1377 159.793 62.974L165.53 56.1325ZM167.786 58.1957C168.027 58.436 168.264 58.6794 168.498 58.9261L162.016 65.0661C161.841 64.8814 161.663 64.6991 161.483 64.5192L167.786 58.1957ZM169.857 60.446C170.076 60.706 170.292 60.969 170.503 61.2349L163.517 66.794C163.358 66.5951 163.197 66.3983 163.033 66.2038L169.857 60.446ZM171.727 62.8671C171.923 63.1451 172.115 63.4258 172.303 63.7092L164.862 68.6437C164.722 68.432 164.578 68.2222 164.431 68.0145L171.727 62.8671ZM173.382 65.4425C173.553 65.7366 173.72 66.0332 173.883 66.3322L166.041 70.6011C165.92 70.3782 165.795 70.157 165.667 69.9376L173.382 65.4425ZM174.807 68.1545C174.952 68.4627 175.093 68.7732 175.229 69.0857L167.043 72.6514C166.942 72.4189 166.837 72.188 166.729 71.9586L174.807 68.1545ZM175.99 70.9843C176.108 71.3043 176.221 71.6262 176.329 71.9499L167.86 74.7785C167.78 74.5384 167.696 74.2995 167.609 74.062L175.99 70.9843ZM176.92 73.9108C177.008 74.2402 177.092 74.5712 177.171 74.9037L168.484 76.9663C168.426 76.7203 168.364 76.4754 168.298 76.2315L176.92 73.9108ZM177.585 76.9115C177.644 77.2477 177.698 77.5853 177.746 77.9242L168.909 79.1984C168.873 78.9482 168.833 78.6989 168.79 78.4505L177.585 76.9115ZM177.978 79.9621C178.006 80.3027 178.029 80.6442 178.048 80.9867L169.131 81.4582C169.118 81.2056 169.101 80.9536 169.08 80.7024L177.978 79.9621ZM178.094 83.037C178.092 83.3783 178.084 83.7203 178.071 84.0628L169.149 83.7278C169.158 83.4749 169.164 83.2226 169.166 82.9707L178.094 83.037ZM177.933 86.1096C177.899 86.4481 177.861 86.7868 177.818 87.1259L168.961 85.9916C168.994 85.7407 169.022 85.4901 169.046 85.2398L177.933 86.1096ZM177.497 89.1483C177.466 89.3162 177.433 89.4842 177.398 89.6522L168.65 87.8653C168.676 87.7405 168.7 87.6157 168.724 87.491L177.497 89.1483Z" fill="white" mask="url(#path-7-inside-1)"/>
<path d="M59.1477 75.7166L16.3378 66.9724L8.93287 103.225L55.4602 111.808L66.8309 101.235L68.1328 85.8419L59.1477 75.7166Z" fill="#F8EBE5"/>
<path fill-rule="evenodd" clip-rule="evenodd" d="M73.5965 96.6029C76.1007 84.3428 68.1921 72.374 55.932 69.8698L17.3653 61.9923L15.6649 70.3168L54.2316 78.1943C61.8942 79.7595 66.8371 87.24 65.272 94.9025L64.9886 96.2899C63.4235 103.952 55.943 108.895 48.2804 107.33L9.7137 99.4528L8.01336 107.777L46.5801 115.655C58.8401 118.159 70.8089 110.25 73.3131 97.9903L73.5965 96.6029Z" fill="#F8EBE5"/>
<circle r="8.63978" transform="matrix(-0.97977 -0.200125 -0.200125 0.97977 44.7014 90.2572)" fill="#151A5E"/>
<circle r="9.02474" transform="matrix(-0.97977 -0.200125 -0.200125 0.97977 46.6926 91.595)" fill="white"/>
</svg>
